<svg xmlns="http://www.w3.org/2000/svg" viewBox="0 0 512 512" width="512" height="512">
  <rect width="512" height="512" rx="115" ry="115" fill="white" />
  <g transform="translate(62, 96) scale(0.752)">
    <path
      d="m 24.658207,0.55422849 c -1.89231,0.10717 -3.44056,0.24024 -6.74414,0.24024 -10.2610001,0 -13.5556101,0.47003001 -15.4746101,2.20703001 -2.27200003,2.056 -2.439460025,5.33651 -2.439460025,48.2285095 0,40.953 0.243029995,46.28899 2.207030025,48.45899 1.879,2.076002 4.35158,2.437502 16.6425801,2.437502 13.887,0 14.45894,0.114 15.08594,3 l 9.41211,68.33398 17.31836,127.33203 10.60937,78 c 3.1,24.206 9.16861,34.68803 24.72461,42.70703 2.567,1.324 6.467973,2.85153 8.667973,3.39454 v -0.002 c 2.2,0.543 72.10099,0.89335 155.33399,0.77735 l 151.33203,-0.21094 7.44922,-3.49414 c 4.097,-1.921 9.72581,-5.76878 12.50781,-8.55078 10.08,-10.08 9.65848,-7.95908 27.39648,-137.95508 l 19.79883,-146 3.51563,-26.66797 14.61523,-0.38086 c 11.201,-0.292 15.172,-0.88406 17,-2.539062 2.203,-1.994 2.38477,-5.66069 2.38477,-48.17969 0,-40.953 -0.24303,-46.2909395 -2.20704,-48.4609395 -1.85299,-2.047 -4.30803,-2.43750001 -15.33203,-2.43750001 -157.92673,-1.63149 -473.804683,-0.23824 -473.804683,-0.23824 z M 257.60352,140.54056 c 0.96065,-0.27675 2.29734,1.52853 5.58984,6.86328 7.932,12.852 16.41253,22.54869 45.51953,52.05469 15.545,15.758 29.29852,30.96329 32.47852,35.90429 18.999,29.519 12.83892,64.51074 -13.83008,78.55274 -5.999,3.159 -8.14536,3.52516 -20.69336,3.53516 -16.56,0.012 -22.28644,-2.18463 -34.27344,-13.14063 l -7.39062,-6.75195 0.99219,5.95117 c 2.63,15.776 11.625,36.96264 19.5,45.93164 h 0.002 c 2.306,2.626 3.96264,4.9035 3.68164,5.0625 l -31.48242,-0.0684 -30.97266,-0.35742 4.8418,-6.30859 c 8.627,-11.23901 14.55062,-25.84158 18.51562,-45.64258 l 0.9336,-4.66797 -6.66211,6.2207 c -3.665,3.422 -9.89284,7.91533 -13.83984,9.98633 -6.47601,3.397 -8.48072,3.7663 -20.51172,3.7793 -11.618,0.012 -14.29025,-0.43452 -20.78125,-3.47852 -28.339,-13.289 -34.23274,-49.77383 -13.05274,-80.79883 2.394,-3.507 17.58772,-19.87972 33.76172,-36.38672 25.564,-26.09 38.7523,-41.68826 46.7793,-55.32226 0.295,-0.50125 0.57431,-0.82572 0.89453,-0.91797 z"
    />
  </g>
</svg>
