<svg xmlns="http://www.w3.org/2000/svg" width="785.848" height="875.096" xmlns:v="https://vecta.io/nano">
  <path
    d="M239.826 874.297c-2.2-.543-6.1-2.07-8.667-3.394-15.556-8.019-21.625-18.501-24.725-42.707l-10.609-78-17.32-127.333-9.412-68.333c-.627-2.886-1.199-3-15.086-3-12.291 0-14.762-.362-16.641-2.438-1.964-2.17-2.207-7.507-2.207-48.46 0-42.892.166-46.172 2.438-48.228 1.919-1.737 5.215-2.207 15.476-2.207 9.883 0 12.883-.403 12.397-1.667-.352-.917-6.717-11.534-14.143-23.594-8.611-13.984-13.502-23.269-13.502-25.631 0-3.734-11.394-23.776-13.517-23.776-.621 0-6.845 3.666-13.831 8.146s-14.769 8.612-17.295 9.182c-6.427 1.45-15.519-.8-20.445-5.059-4.607-3.982-39.441-59.951-50.374-80.936C.103 264.134-5.828 214.122 5.871 167.799c3.948-15.633 6.449-21.108 10.317-22.593 3.6-1.381 27.623 3.318 42.63 8.34 18.519 6.197 35.533 15.139 51.098 26.855 14.073 10.593 32.521 29.226 41.703 42.12 8.093 11.365 45.952 72.392 49.013 79.009 3.299 7.129 3.153 13.527-.473 20.717-2.947 5.845-4.04 6.705-29.571 23.283-1.754 1.139-1.085 2.885 4.577 11.955 3.647 5.842 8.047 11.364 9.778 12.271 1.903.997 12.806 17.224 27.577 41.045l24.43 39.396h35.771c33.495 0 35.771-.152 35.771-2.389 0-1.314-2.138-14.364-4.751-29l-15.144-88.31-11.078-62.385c-.377-.377-12.517 1.48-26.979 4.125s-28.137 4.863-30.389 4.927c-6.309.179-8.222-3.496-11.368-21.84-21.586-125.887-20.617-119.177-19.898-137.795 1.014-26.235 7.579-46.396 22.742-69.835 11.087-17.139 40.981-45.137 50.835-47.61 3.976-.998 27.953 7.025 41.565 13.908 33.227 16.801 56.975 43.049 67.833 74.974 2.835 8.336 27.298 142.184 27.298 149.361 0 5.934-3.927 7.638-27.333 11.856l-29.396 5.421-6.73 1.336 16.756 96.295 16.756 96.295h23.193H415.6l2.356-8.667 14.099-53.277c8.265-31.396 12.598-45.627 14.63-48.041 1.588-1.887 4.229-8.328 5.869-14.313l2.982-10.883-8.282-9.039c-15.945-17.402-24.253-32.886-26.545-49.479-1.664-12.045-.525-20.312 6.287-45.636l14.009-52.23 10.101-36.296c2.285-6.011 6.267-5.746 36.548 2.426l62.839 16.905c53.319 14.306 54.538 14.806 54.275 22.242-.283 7.993-28.4 110.408-32.962 120.064-9.613 20.346-30.838 35.136-61.506 42.859-5.501 1.385-5.537 1.436-7.952 11.045-1.334 5.309-2.461 13.253-2.505 17.653-.055 5.556-3.435 20.744-11.062 49.71l-11.302 43.333c-.245 1.245 8.373 1.623 36.926 1.623h37.245l6.971-12 25.566-44c11.936-20.541 19.726-32.576 21.753-33.607 2.518-1.281 17.748-24.309 16.742-25.314-.145-.145-4.878-.836-10.518-1.537-18.17-2.256-25.824-10.338-24.717-26.099.51-7.256 1.594-9.794 10.291-24.11 37.402-61.561 76.049-104.705 128.703-143.676 19.652-14.546 47.317-31.657 51.18-31.657 1.579 0 4.163 1.291 5.741 2.869 2.789 2.789 2.846 3.53 2.029 26.333-2.214 61.773-14.471 119.257-36.42 170.797-7.862 18.463-31.895 65.157-35.577 69.127-4.584 4.941-10.275 7.254-17.849 7.254-9.238 0-15.598-4.215-22.483-14.899-2.88-4.469-5.535-8.114-5.902-8.1-1.715.066-13.333 22.738-13.333 26.019 0 3.984-1.567 7.002-20.824 40.095-6.88 11.823-12.509 21.873-12.509 22.333s5.907.837 13.127.837c11.024 0 13.48.391 15.333 2.438 1.964 2.17 2.207 7.507 2.207 48.46 0 42.519-.182 46.186-2.385 48.18-1.828 1.655-5.799 2.248-17 2.54l-14.615.381-3.516 26.667-19.799 146c-17.738 129.996-17.317 127.876-27.397 137.956-2.782 2.782-8.41 6.63-12.507 8.551l-7.449 3.493-151.333.211c-83.233.116-153.133-.234-155.333-.777zm180.829-75.453c-7.875-8.969-16.87-30.156-19.5-45.932l-.992-5.952 7.389 6.753c11.987 10.956 17.715 13.152 34.275 13.14 12.548-.01 14.694-.375 20.693-3.534 26.669-14.042 32.829-49.034 13.83-78.553-3.18-4.941-16.934-20.146-32.479-35.904-29.107-29.506-37.587-39.203-45.519-52.055-4.39-7.113-5.304-7.951-6.484-5.946-8.027 13.634-21.217 29.232-46.781 55.322-16.174 16.507-31.366 32.881-33.76 36.388-21.18 31.025-15.287 67.509 13.052 80.798 6.491 3.044 9.164 3.491 20.782 3.479 12.031-.013 14.034-.382 20.51-3.779 3.947-2.071 10.175-6.564 13.84-9.986l6.663-6.221-.934 4.667c-3.965 19.801-9.888 34.403-18.515 45.642l-4.842 6.309 30.972.358 31.483.069c.281-.159-1.376-2.438-3.682-5.064zM216.126 448.53c-2.125-5.428-37.432-60.311-38.731-60.203-2.492.206-21.078 12.489-20.527 13.566.273.534 7.001 11.62 14.951 24.637l14.455 23.667h15.252c11.661 0 15.098-.392 14.6-1.667zm135.964-2.667l-8.073-45.667-11.743-67.667c-3.466-20.644-4.856-26.333-6.435-26.333-2.508 0-23.017 3.892-23.604 4.48-.487.487 7.17 46.108 16.991 101.24l6.6 37.667c0 .337 6.079.614 13.508.614h13.508zm119.303-40.296l11.215-44.366c-.221-.221-4.838-1.614-10.259-3.094l-12.079-3.356c-2.64-.789-2.313-1.833-16.513 52.716l-10.905 41.048c-.547 1.425 2.054 1.702 13.12 1.396l13.802-.382zm145.346 16.63l17.192-29.557c.993-1.832-.661-3.3-9.388-8.333-5.826-3.36-11.071-6.101-11.655-6.091-.904.016-40.211 66.996-41.522 70.753-.29.831 5.049 1.178 14.463.94l14.922-.378zm-455.361-44.305c2.447-1.444 4.448-3.072 4.448-3.62s-2.486-4.838-5.525-9.535l-12.64-20.032c-3.913-6.321-9.779-14.457-13.037-18.079-6.624-7.368-16.367-14.638-17.755-13.249-1.31 1.31 1.587 14.009 5.282 23.157 1.744 4.317 8.776 16.966 15.627 28.109l12.456 20.26 3.347-2.193c1.841-1.206 5.349-3.374 7.796-4.818zm-58.107-9.018l12.702-7.99-5.741-11.677c-7.422-15.096-10.144-26.103-9.519-38.483.408-8.088 1.037-10.278 3.801-13.236 2.817-3.014 4.141-3.452 8.858-2.928 3.05.339 8.394 1.995 11.874 3.679 7.659 3.708 22.606 17.535 28.758 26.605 2.469 3.639 5.104 6.633 5.856 6.652 1.766.044 20.531-11.496 23.799-14.637 1.375-1.322 2.5-3.812 2.5-5.534 0-2.548-32.363-56.282-45.86-76.146-17.492-25.742-48.126-50.886-76.057-62.427-11.368-4.697-27.473-9.084-35.083-9.557l-5.333-.331-3.217 12c-2.875 10.723-3.226 14.838-3.297 38.667-.074 24.386.222 27.943 3.459 41.587 5.386 22.704 13.113 40.454 28.806 66.176 35.882 58.813 33.655 55.57 38.16 55.57 1.557 0 8.547-3.596 15.534-7.99zm551.122-18.602c7.025-12.059 14.507-26.459 16.627-32 4.44-11.603 7.654-25.004 6.319-26.34-1.309-1.309-15.875 13.379-23.404 23.599-5.951 8.078-27.811 45.144-28.477 48.284-.383 1.809 13.995 10.634 15.231 9.349.512-.532 6.678-10.833 13.703-22.892zm57.05-2.741c26.891-50.142 42.693-94.852 50.945-144.145 3.674-21.949 6.624-47.506 5.91-51.212-.302-1.565-13.682 20.668-35.358 58.753l-36.186 64.604c-.722 1.833-1.967 9.124-2.767 16.201-1.673 14.803-6.503 31.208-12.981 44.091l-4.505 8.959 7.387 11.451c7.26 11.253 7.472 11.444 12.287 11.041 4.848-.406 5.01-.616 15.269-19.744zm-221.703-25.667c5.854-21.868 8.351-42.453 6.192-51.056l-.907-3.615-3.211 3.017c-6.32 5.937-13.831 23.135-20.088 45.998-3.349 12.234-5.894 22.439-5.656 22.677.515.515 14.486 4.351 16.481 4.525.764.067 4-9.629 7.19-21.546zm148.27-12c7.945-11.79 24.283-28.37 34.588-35.103 8.684-5.673 8.912-5.98 22.897-30.814l36.184-63.684c12.132-21.23 21.817-38.842 21.521-39.138s-4.95 2.512-10.342 6.24c-40.475 27.98-81.955 69.933-110.391 111.649-15.913 23.344-29.306 46.172-29.306 49.951 0 6.224 3.859 7.55 26.284 9.036 2.228.148 4.325-1.844 8.566-8.138zm-114.268-5.083c17.039-6.375 29.936-18.238 35.24-32.414 3.11-8.312 28.561-103.565 27.86-104.267-.394-.394-58.29-16.282-113.451-31.134-6.434-1.732-9.255-2.009-9.62-.944-.284.829-6.354 23.107-13.488 49.507-12.251 45.337-12.975 48.744-13.047 61.402-.073 12.87.121 13.797 4.884 23.333 2.728 5.462 7.9 13.338 11.493 17.502l6.533 7.572 3.6-9.176c4.866-12.402 12.161-23.342 20.651-30.967 5.8-5.209 7.951-6.333 12.122-6.333 4.022 0 5.782.846 8.511 4.089 5.897 7.008 7.897 16.885 7.123 35.171-.374 8.841-1.149 17.214-1.723 18.607-.915 2.225-.604 2.423 2.565 1.628 1.984-.498 6.82-2.107 10.747-3.577zm-210.496-13.308c5.819-.915 10.755-1.801 10.968-1.969.701-.551-6.409-41.064-9.238-52.641-3.233-13.23-9.784-28.125-15.156-34.463l-3.783-4.463-1.775 3.388c-2.819 5.38-4.776 23.233-3.823 34.872.748 9.139 5.8 42.645 8.206 54.427.451 2.21 1.438 3.504 2.394 3.137.894-.343 6.387-1.373 12.207-2.288zm-59.126-36.725l20.96-3.717-.817-16.111c-1.669-32.928 6.461-54.057 20.8-54.057 13.281 0 27.982 21.091 35.465 50.881 1.731 6.892 2.692 8.698 4.423 8.312 1.216-.271 12.036-2.277 24.046-4.456l22.154-4.35c.176-.213-1.421-10.587-3.548-23.054L356.607 95.191c-6.627-19.249-19.484-37.584-35.783-51.028-9.929-8.19-32.074-20.013-46.067-24.594l-9.069-2.969-4.95 3.276c-13.53 8.953-31.603 29.068-40.55 45.128-10.774 19.341-16.679 44.14-15.325 64.358.399 5.959 5.279 37.278 10.844 69.599l10.119 59.833c0 .588 1.65.754 3.667.369l24.626-4.416z"
    fill="#fff"
  />
</svg>
